<svg width="30" height="48" viewBox="0 0 30 48" fill="none" xmlns="http://www.w3.org/2000/svg">
<g clip-path="url(#clip0_23_41)">
<path d="M13.875 6C11.175 6 8.5406 7.07813 6.63748 8.98125L4.05935 11.5594C3.4781 12.1406 2.52185 12.1406 1.9406 11.5594C1.35935 10.9781 1.35935 10.0219 1.9406 9.44062L4.51873 6.85312C6.99373 4.3875 10.3969 3 13.875 3C21.0469 3 27 8.80313 27 16.0125C27 19.6125 25.5094 23.0438 22.8844 25.5094L5.29685 42H28.5C29.325 42 30 42.675 30 43.5C30 44.325 29.325 45 28.5 45H1.49998C0.881229 45 0.328104 44.625 0.103104 44.0531C-0.121896 43.4813 0.0187294 42.825 0.468729 42.4031L20.8312 23.3156C22.8469 21.4219 24 18.7781 24 16.0125C24 10.5 19.425 6 13.875 6Z" fill="black"/>
</g>
<defs>
<clipPath id="clip0_23_41">
<rect width="30" height="48" fill="white"/>
</clipPath>
</defs>
</svg>
