<svg width="30" height="48" viewBox="0 0 30 48" fill="none" xmlns="http://www.w3.org/2000/svg">
<g clip-path="url(#clip0_23_46)">
<path d="M-9.45758e-06 4.5C-9.45758e-06 3.675 0.67499 3 1.49999 3H27C27.6187 3 28.1719 3.375 28.3969 3.95625C28.6219 4.5375 28.4719 5.18437 28.0219 5.60625L11.3344 21H18C24.6281 21 30 26.3719 30 33C30 39.6281 24.6281 45 18 45H8.38124C4.96874 45 1.85624 43.0781 0.328116 40.0219L0.149991 39.6656C-0.225009 38.925 0.0843656 38.025 0.824991 37.65C1.56562 37.275 2.46562 37.5844 2.84062 38.325L3.01874 38.6813C4.03124 40.7156 6.11249 42 8.38124 42H18C22.9687 42 27 37.9688 27 33C27 28.0312 22.9687 24 18 24H7.49999C6.88124 24 6.32812 23.625 6.10312 23.0438C5.87812 22.4625 6.02812 21.8156 6.47812 21.3937L23.1656 6H1.49999C0.67499 6 -9.45758e-06 5.325 -9.45758e-06 4.5Z" fill="black"/>
</g>
<defs>
<clipPath id="clip0_23_46">
<rect width="30" height="48" fill="white"/>
</clipPath>
</defs>
</svg>
