<svg width="9" height="12" viewBox="0 0 9 12" fill="none" xmlns="http://www.w3.org/2000/svg">
<g clip-path="url(#clip0_94_247)">
<path d="M1.5 10.875C1.29375 10.875 1.125 10.7063 1.125 10.5V1.5C1.125 1.29375 1.29375 1.125 1.5 1.125H5.25V3C5.25 3.41484 5.58516 3.75 6 3.75H7.875V10.5C7.875 10.7063 7.70625 10.875 7.5 10.875H1.5ZM1.5 0C0.672656 0 0 0.672656 0 1.5V10.5C0 11.3273 0.672656 12 1.5 12H7.5C8.32734 12 9 11.3273 9 10.5V3.62109C9 3.22266 8.84297 2.84062 8.56172 2.55937L6.43828 0.438281C6.15703 0.157031 5.77734 0 5.37891 0H1.5ZM2.8125 6C2.50078 6 2.25 6.25078 2.25 6.5625C2.25 6.87422 2.50078 7.125 2.8125 7.125H6.1875C6.49922 7.125 6.75 6.87422 6.75 6.5625C6.75 6.25078 6.49922 6 6.1875 6H2.8125ZM2.8125 8.25C2.50078 8.25 2.25 8.50078 2.25 8.8125C2.25 9.12422 2.50078 9.375 2.8125 9.375H6.1875C6.49922 9.375 6.75 9.12422 6.75 8.8125C6.75 8.50078 6.49922 8.25 6.1875 8.25H2.8125Z" fill="black"/>
</g>
<defs>
<clipPath id="clip0_94_247">
<rect width="9" height="12" fill="white"/>
</clipPath>
</defs>
</svg>
