<svg width="12" height="12" viewBox="0 0 12 12" fill="none" xmlns="http://www.w3.org/2000/svg">
<g clip-path="url(#clip0_94_278)">
<path d="M4.875 4.125C4.875 2.46797 6.21797 1.125 7.875 1.125C9.53203 1.125 10.875 2.46797 10.875 4.125C10.875 5.78203 9.53203 7.125 7.875 7.125C7.63125 7.125 7.39453 7.09687 7.16953 7.04062C6.97969 6.99375 6.77812 7.05 6.63984 7.19062L5.95547 7.875H4.6875C4.37578 7.875 4.125 8.12578 4.125 8.4375V9.375H3.1875C2.87578 9.375 2.625 9.62578 2.625 9.9375V10.875H1.125V9.04453L4.80937 5.36016C4.94766 5.22187 5.00391 5.02031 4.95938 4.83047C4.90547 4.60547 4.875 4.36875 4.875 4.125ZM7.875 0C5.59688 0 3.75 1.84688 3.75 4.125C3.75 4.34766 3.76641 4.56562 3.80156 4.77891L0.164062 8.41406C0.0585938 8.51953 0 8.6625 0 8.8125V11.4375C0 11.7492 0.250781 12 0.5625 12H3.1875C3.49922 12 3.75 11.7492 3.75 11.4375V10.5H4.6875C4.99922 10.5 5.25 10.2492 5.25 9.9375V9H6.1875C6.3375 9 6.48047 8.94141 6.58594 8.83594L7.22344 8.19844C7.43672 8.23125 7.65469 8.25 7.87734 8.25C10.1555 8.25 12.0023 6.40312 12.0023 4.125C12.0023 1.84688 10.1531 0 7.875 0ZM8.625 4.125C8.82391 4.125 9.01468 4.04598 9.15533 3.90533C9.29598 3.76468 9.375 3.57391 9.375 3.375C9.375 3.17609 9.29598 2.98532 9.15533 2.84467C9.01468 2.70402 8.82391 2.625 8.625 2.625C8.42609 2.625 8.23532 2.70402 8.09467 2.84467C7.95402 2.98532 7.875 3.17609 7.875 3.375C7.875 3.57391 7.95402 3.76468 8.09467 3.90533C8.23532 4.04598 8.42609 4.125 8.625 4.125Z" fill="black"/>
</g>
<defs>
<clipPath id="clip0_94_278">
<rect width="12" height="12" fill="white"/>
</clipPath>
</defs>
</svg>
