<svg width="12" height="10" viewBox="0 0 12 10" fill="none" xmlns="http://www.w3.org/2000/svg">
<g clip-path="url(#clip0_97_302)">
<path d="M10.8807 5.00988C11.9344 3.95613 11.9344 2.24801 10.8807 1.19426C9.87754 0.191131 8.26691 0.136755 7.19816 1.07238L7.08379 1.17363C6.89629 1.33676 6.87754 1.62176 7.04066 1.80926C7.20379 1.99676 7.48879 2.01551 7.67629 1.85238L7.79066 1.75113C8.50316 1.12863 9.57566 1.16426 10.245 1.83363C10.9463 2.53488 10.9463 3.67301 10.245 4.37613L8.12066 6.49863C7.41941 7.19988 6.27941 7.19988 5.57816 6.49863C4.90879 5.82926 4.87316 4.75676 5.49566 4.04426L5.58379 3.94301C5.74691 3.75551 5.72816 3.47238 5.54066 3.30738C5.35316 3.14238 5.07004 3.16301 4.90504 3.35051L4.81691 3.45176C3.88316 4.52051 3.93754 6.13113 4.94066 7.13426C5.99441 8.18801 7.70254 8.18801 8.75629 7.13426L10.8807 5.00988ZM1.11941 4.58988C0.0656641 5.64363 0.0656641 7.35176 1.11941 8.40363C2.12441 9.40863 3.73504 9.46113 4.80379 8.52551L4.91816 8.42426C5.10566 8.26113 5.12441 7.97613 4.96129 7.78863C4.79816 7.60113 4.51316 7.58238 4.32566 7.74551L4.21129 7.84676C3.49879 8.46926 2.42629 8.43363 1.75691 7.76426C1.05566 7.06301 1.05566 5.92488 1.75691 5.22176L3.88129 3.10113C4.58254 2.39988 5.72066 2.39988 6.42379 3.10113C7.09316 3.77051 7.12879 4.84301 6.50629 5.55551L6.40504 5.66988C6.24191 5.85738 6.26066 6.14051 6.44816 6.30551C6.63566 6.47051 6.91879 6.44988 7.08379 6.26238L7.18504 6.14801C8.12066 5.07926 8.06629 3.46863 7.06316 2.46363C6.00941 1.40988 4.30129 1.40988 3.24754 2.46363L1.11941 4.58988Z" fill="black"/>
</g>
<defs>
<clipPath id="clip0_97_302">
<rect width="12" height="9.6" fill="white"/>
</clipPath>
</defs>
</svg>
