<svg width="48" height="43" viewBox="0 0 48 43" fill="none" xmlns="http://www.w3.org/2000/svg">
<g clip-path="url(#clip0_23_31)">
<path d="M22.6667 2.66667C25.5667 2.66667 28.0417 4.51667 28.9583 7.10833C29.2 7.8 29.9667 8.16667 30.6583 7.925C31.35 7.68333 31.7167 6.91667 31.475 6.225C30.1917 2.6 26.7333 0 22.6667 0C18.0417 0 14.2 3.36667 13.4583 7.78333C13.3333 8.50833 13.825 9.2 14.55 9.31667C15.275 9.43333 15.9667 8.95 16.0833 8.225C16.625 5.06667 19.3667 2.66667 22.6667 2.66667ZM4.6 15.8583C5.25833 15.525 5.525 14.725 5.2 14.0667C4.875 13.4083 4.06667 13.1417 3.40833 13.4667L3.01667 13.6667C1.16667 14.5917 0 16.4833 0 18.55C0 21.525 2.375 23.9417 5.33333 24C5.33333 28.3667 7.43333 32.2333 10.6667 34.6667V38.6667C10.6667 40.875 12.4583 42.6667 14.6667 42.6667H17.3333C19.5417 42.6667 21.3333 40.875 21.3333 38.6667V37.3333H26.6667V38.6667C26.6667 40.875 28.4583 42.6667 30.6667 42.6667H33.3333C35.5417 42.6667 37.3333 40.875 37.3333 38.6667V36.225C39.4583 35.3 41.2917 33.8333 42.6667 32H45.3333C46.8083 32 48 30.8083 48 29.3333V21.3333C48 19.8583 46.8083 18.6667 45.3333 18.6667H44.225C43.3333 16.6167 41.9417 14.8417 40.2 13.4833L40.8 11.4C41.2833 9.69167 40 8 38.2333 8H38C35.4583 8 33.15 9.01667 31.4667 10.6667H18.6667C12.2167 10.6667 6.83333 15.25 5.6 21.3333H5.45C3.91667 21.3333 2.66667 20.0833 2.66667 18.55C2.66667 17.4917 3.26667 16.5333 4.20833 16.0583L4.6 15.8667V15.8583ZM35.3333 24C35.8638 24 36.3725 23.7893 36.7475 23.4142C37.1226 23.0391 37.3333 22.5304 37.3333 22C37.3333 21.4696 37.1226 20.9609 36.7475 20.5858C36.3725 20.2107 35.8638 20 35.3333 20C34.8029 20 34.2942 20.2107 33.9191 20.5858C33.544 20.9609 33.3333 21.4696 33.3333 22C33.3333 22.5304 33.544 23.0391 33.9191 23.4142C34.2942 23.7893 34.8029 24 35.3333 24ZM33.0333 12.8917C34.25 11.525 36.025 10.6667 38 10.6667H38.2333L37.3833 13.65C37.225 14.2083 37.4417 14.8 37.925 15.125C39.825 16.3917 41.2917 18.2583 42.0667 20.4417C42.2583 20.975 42.7583 21.3333 43.325 21.3333H45.3333V29.3333H41.9833C41.5417 29.3333 41.125 29.5583 40.875 29.925C39.6083 31.825 37.7417 33.2917 35.5583 34.0583C35.025 34.25 34.6667 34.75 34.6667 35.3167V38.6667C34.6667 39.4 34.0667 40 33.3333 40H30.6667C29.9333 40 29.3333 39.4 29.3333 38.6667V36C29.3333 35.2667 28.7333 34.6667 28 34.6667H20C19.2667 34.6667 18.6667 35.2667 18.6667 36V38.6667C18.6667 39.4 18.0667 40 17.3333 40H14.6667C13.9333 40 13.3333 39.4 13.3333 38.6667V33.9833C13.3333 33.5417 13.1083 33.125 12.7417 32.875C9.88333 30.9583 8 27.7 8 24C8 18.1083 12.775 13.3333 18.6667 13.3333H32H32.0333C32.4167 13.3333 32.775 13.175 33.025 12.8917H33.0333Z" fill="black"/>
</g>
<defs>
<clipPath id="clip0_23_31">
<rect width="48" height="42.6667" fill="white"/>
</clipPath>
</defs>
</svg>
