<svg width="48" height="48" viewBox="0 0 48 48" fill="none" xmlns="http://www.w3.org/2000/svg">
<g clip-path="url(#clip0_23_16)">
<path d="M20.5594 27.4406C19.6219 26.5031 18.5531 25.7438 17.3906 25.1813C20.2125 13.7156 25.2187 8.12814 30.1031 5.44689C35.1187 2.69064 40.5469 2.69064 44.5969 3.40314C45.3094 7.45314 45.3187 12.8813 42.5531 17.8969C39.8719 22.7813 34.2844 27.7875 22.8187 30.6094C22.2562 29.4469 21.4969 28.3688 20.5594 27.4406ZM24 35.7469C24 34.9781 23.925 34.2188 23.775 33.4688C27.3187 32.5781 30.375 31.4719 33 30.2156V37.725C33 38.8594 32.3625 39.9 31.3406 40.4063L24 44.0719V35.7375V35.7469ZM36 37.725V28.5938C48.3469 21.1031 48.7969 9.60939 47.5031 2.63439C47.2969 1.54689 46.4531 0.693768 45.3656 0.496893C38.3906 -0.796857 26.8969 -0.346857 19.4062 12H10.275C8.00625 12 5.925 13.2844 4.9125 15.3188L0.159374 24.825C-0.0750008 25.2938 -0.0468758 25.8469 0.224999 26.2875C0.496874 26.7281 0.984374 27 1.5 27H12.2531C14.5687 27 16.8 27.9188 18.4312 29.5594C20.0625 31.2 20.9906 33.4219 20.9906 35.7375V46.5C20.9906 47.0156 21.2625 47.5031 21.7031 47.775C22.1437 48.0469 22.6969 48.075 23.1656 47.8406L32.6812 43.0875C34.7156 42.075 36 39.9938 36 37.725ZM14.5312 24.225C13.7906 24.075 13.0219 24 12.2531 24H3.92812L7.59375 16.6594C8.1 15.6469 9.14062 15 10.275 15H17.7844C16.5187 17.625 15.4219 20.6719 14.5312 24.225ZM13.4812 41.9438C12.45 42.975 10.725 43.7625 8.55 44.2781C6.61875 44.7375 4.60312 44.9156 3.01875 44.9719C3.075 43.3781 3.25312 41.3719 3.7125 39.4406C4.22812 37.2656 5.01562 35.5406 6.04687 34.5094C8.1 32.4563 11.4281 32.4563 13.4812 34.5094C15.5344 36.5625 15.5344 39.8906 13.4812 41.9438ZM15.6094 44.0625C18.8344 40.8375 18.8344 35.6156 15.6094 32.3906C12.3844 29.1656 7.1625 29.1656 3.9375 32.3906C0.721874 35.5969 0.0937492 41.8125 0.00937416 45.3469C-0.0281258 46.8469 1.15312 48.0281 2.65312 47.9906C6.1875 47.9063 12.4031 47.2781 15.6094 44.0625ZM36.75 13.5C36.75 14.0968 36.5129 14.6691 36.091 15.091C35.669 15.513 35.0967 15.75 34.5 15.75C33.9033 15.75 33.331 15.513 32.909 15.091C32.487 14.6691 32.25 14.0968 32.25 13.5C32.25 12.9033 32.487 12.331 32.909 11.909C33.331 11.4871 33.9033 11.25 34.5 11.25C35.0967 11.25 35.669 11.4871 36.091 11.909C36.5129 12.331 36.75 12.9033 36.75 13.5ZM34.5 8.25002C33.8106 8.25002 33.1279 8.38581 32.4909 8.64965C31.854 8.91349 31.2752 9.3002 30.7877 9.78771C30.3002 10.2752 29.9135 10.854 29.6496 11.4909C29.3858 12.1279 29.25 12.8106 29.25 13.5C29.25 14.1895 29.3858 14.8721 29.6496 15.5091C29.9135 16.1461 30.3002 16.7248 30.7877 17.2123C31.2752 17.6998 31.854 18.0865 32.4909 18.3504C33.1279 18.6142 33.8106 18.75 34.5 18.75C35.1894 18.75 35.8721 18.6142 36.5091 18.3504C37.146 18.0865 37.7248 17.6998 38.2123 17.2123C38.6998 16.7248 39.0865 16.1461 39.3504 15.5091C39.6142 14.8721 39.75 14.1895 39.75 13.5C39.75 12.8106 39.6142 12.1279 39.3504 11.4909C39.0865 10.854 38.6998 10.2752 38.2123 9.78771C37.7248 9.3002 37.146 8.91349 36.5091 8.64965C35.8721 8.38581 35.1894 8.25002 34.5 8.25002Z" fill="black"/>
</g>
<defs>
<clipPath id="clip0_23_16">
<rect width="48" height="48" fill="white"/>
</clipPath>
</defs>
</svg>
