<svg width="48" height="48" viewBox="0 0 48 48" fill="none" xmlns="http://www.w3.org/2000/svg">
<path d="M40.5 3C41.325 3 42 3.675 42 4.5V9H46.5C47.325 9 48 9.675 48 10.5C48 11.325 47.325 12 46.5 12H42V16.5C42 17.325 41.325 18 40.5 18C39.675 18 39 17.325 39 16.5V12H34.5C33.675 12 33 11.325 33 10.5C33 9.675 33.675 9 34.5 9H39V4.5C39 3.675 39.675 3 40.5 3ZM40.5 30C41.325 30 42 30.675 42 31.5V36H46.5C47.325 36 48 36.675 48 37.5C48 38.325 47.325 39 46.5 39H42V43.5C42 44.325 41.325 45 40.5 45C39.675 45 39 44.325 39 43.5V39H34.5C33.675 39 33 38.325 33 37.5C33 36.675 33.675 36 34.5 36H39V31.5C39 30.675 39.675 30 40.5 30ZM12.825 20.2875L5.08125 23.8688L12.825 27.4406C13.4719 27.7406 13.9875 28.2562 14.2875 28.9031L17.8594 36.6469L21.4313 28.9031C21.7313 28.2562 22.2469 27.7406 22.8937 27.4406L30.6375 23.8688L22.8937 20.2969C22.2469 19.9969 21.7313 19.4812 21.4313 18.8344L17.8594 11.0906L14.2875 18.8344C13.9875 19.4812 13.4719 19.9969 12.825 20.2969V20.2875ZM11.5688 30.1687L0.871875 25.2281C0.3375 24.9844 0 24.45 0 23.8688C0 23.2875 0.3375 22.7531 0.871875 22.5094L11.5688 17.5687L16.5 6.87188C16.7437 6.3375 17.2781 6 17.8594 6C18.4406 6 18.975 6.3375 19.2188 6.87188L24.1594 17.5687L34.8562 22.5C35.3906 22.7437 35.7281 23.2781 35.7281 23.8594C35.7281 24.4406 35.3906 24.975 34.8562 25.2188L24.1687 30.1687L19.2281 40.8562C18.9844 41.3906 18.45 41.7281 17.8688 41.7281C17.2875 41.7281 16.7531 41.3906 16.5094 40.8562L11.5688 30.1687Z" fill="black"/>
</svg>
